<?plantuml 1.2026.1?><svg xmlns="http://www.w3.org/2000/svg" xmlns:xlink="http://www.w3.org/1999/xlink" contentStyleType="text/css" data-diagram-type="CLASS" height="859px" preserveAspectRatio="none" style="width:1242px;height:859px;background:#FFFFFF;" version="1.1" viewBox="0 0 1242 859" width="1242px" zoomAndPan="magnify"><defs/><g><!--cluster Invoices--><g class="cluster" data-qualified-name="Invoices" data-source-line="3" id="ent0003"><path d="M523.5,505.33 L583.7061,505.33 A3.75,3.75 0 0 1 586.2061,507.83 L593.2061,527.8183 L1232.5,527.8183 A2.5,2.5 0 0 1 1235,530.3183 L1235,678.76 A2.5,2.5 0 0 1 1232.5,681.26 L523.5,681.26 A2.5,2.5 0 0 1 521,678.76 L521,507.83 A2.5,2.5 0 0 1 523.5,505.33" fill="none" style="stroke:#000000;stroke-width:1.5;"/><line style="stroke:#000000;stroke-width:1.5;" x1="521" x2="593.2061" y1="527.8183" y2="527.8183"/><text fill="#000000" font-family="sans-serif" font-size="14" font-weight="bold" lengthAdjust="spacing" textLength="59.2061" x="525" y="520.8652">Invoices</text></g><!--cluster Sales--><g class="cluster" data-qualified-name="Sales" data-source-line="11" id="ent0005"><path d="M8.5,255.67 L46.4004,255.67 A3.75,3.75 0 0 1 48.9004,258.17 L55.9004,278.1583 L392.5,278.1583 A2.5,2.5 0 0 1 395,280.6583 L395,849.71 A2.5,2.5 0 0 1 392.5,852.21 L8.5,852.21 A2.5,2.5 0 0 1 6,849.71 L6,258.17 A2.5,2.5 0 0 1 8.5,255.67" fill="none" style="stroke:#000000;stroke-width:1.5;"/><line style="stroke:#000000;stroke-width:1.5;" x1="6" x2="55.9004" y1="278.1583" y2="278.1583"/><text fill="#000000" font-family="sans-serif" font-size="14" font-weight="bold" lengthAdjust="spacing" textLength="36.9004" x="10" y="271.2052">Sales</text></g><!--cluster HR--><g class="cluster" data-qualified-name="HR" data-source-line="19" id="ent0007"><path d="M539.5,6 L561.083,6 A3.75,3.75 0 0 1 563.583,8.5 L570.583,28.4883 L854.5,28.4883 A2.5,2.5 0 0 1 857,30.9883 L857,129.97 A2.5,2.5 0 0 1 854.5,132.47 L539.5,132.47 A2.5,2.5 0 0 1 537,129.97 L537,8.5 A2.5,2.5 0 0 1 539.5,6" fill="none" style="stroke:#000000;stroke-width:1.5;"/><line style="stroke:#000000;stroke-width:1.5;" x1="537" x2="570.583" y1="28.4883" y2="28.4883"/><text fill="#000000" font-family="sans-serif" font-size="14" font-weight="bold" lengthAdjust="spacing" textLength="20.583" x="541" y="21.5352">HR</text></g><!--cluster Alignment--><g class="cluster" data-qualified-name="Alignment" data-source-line="37" id="ent0011"><path d="M554.5,181.47 L629.9912,181.47 A3.75,3.75 0 0 1 632.4912,183.97 L639.4912,203.9583 L747.5,203.9583 A2.5,2.5 0 0 1 750,206.4583 L750,453.83 A2.5,2.5 0 0 1 747.5,456.33 L554.5,456.33 A2.5,2.5 0 0 1 552,453.83 L552,183.97 A2.5,2.5 0 0 1 554.5,181.47" fill="none" style="stroke:#000000;stroke-width:1.5;"/><line style="stroke:#000000;stroke-width:1.5;" x1="552" x2="639.4912" y1="203.9583" y2="203.9583"/><text fill="#000000" font-family="sans-serif" font-size="14" font-weight="bold" lengthAdjust="spacing" textLength="74.4912" x="556" y="197.0052">Alignment</text></g><!--class Address--><g class="entity" data-qualified-name="Invoices..Address" data-source-line="3" id="ent0002"><rect fill="#F1F1F1" height="124.9297" rx="2.5" ry="2.5" style="stroke:#181818;stroke-width:0.5;" width="205.2998" x="766.35" y="540.33"/><text fill="#000000" font-family="sans-serif" font-size="14" lengthAdjust="spacing" textLength="55.084" x="841.4579" y="558.8652">Address</text><line style="stroke:#181818;stroke-width:0.5;" x1="767.35" x2="970.6498" y1="566.8183" y2="566.8183"/><text fill="#000000" font-family="sans-serif" font-size="14" lengthAdjust="spacing" textLength="140.6084" x="772.35" y="584.3534">city : Invoices::String</text><text fill="#000000" font-family="sans-serif" font-size="14" lengthAdjust="spacing" textLength="168.2666" x="772.35" y="600.8417">country : Invoices::String</text><text fill="#000000" font-family="sans-serif" font-size="14" lengthAdjust="spacing" textLength="193.2998" x="772.35" y="617.33">postalCode : Invoices::String</text><text fill="#000000" font-family="sans-serif" font-size="14" lengthAdjust="spacing" textLength="149.9805" x="772.35" y="633.8183">state : Invoices::String</text><text fill="#000000" font-family="sans-serif" font-size="14" lengthAdjust="spacing" textLength="155.7773" x="772.35" y="650.3066">street : Invoices::String</text><line style="stroke:#181818;stroke-width:0.5;" x1="767.35" x2="970.6498" y1="657.2597" y2="657.2597"/></g><!--class Invoice--><g class="entity" data-qualified-name="Invoices..Invoice" data-source-line="29" id="ent0009"><rect fill="#F1F1F1" height="124.9297" rx="2.5" ry="2.5" style="stroke:#181818;stroke-width:0.5;" width="194.0137" x="536.99" y="540.33"/><text fill="#000000" font-family="sans-serif" font-size="14" lengthAdjust="spacing" textLength="47.585" x="610.2044" y="558.8652">Invoice</text><line style="stroke:#181818;stroke-width:0.5;" x1="537.99" x2="730.0037" y1="566.8183" y2="566.8183"/><text fill="#000000" font-family="sans-serif" font-size="14" lengthAdjust="spacing" textLength="182.0137" x="542.99" y="584.3534">createdAt : Invoices::String</text><text fill="#000000" font-family="sans-serif" font-size="14" lengthAdjust="spacing" textLength="157.0352" x="542.99" y="600.8417">dueAt : Invoices::String</text><text fill="#000000" font-family="sans-serif" font-size="14" lengthAdjust="spacing" textLength="144.3477" x="542.99" y="617.33">id : Invoices::ID [1..1]</text><text fill="#000000" font-family="sans-serif" font-size="14" lengthAdjust="spacing" textLength="172.2041" x="542.99" y="633.8183">payedAt : Invoices::String</text><text fill="#000000" font-family="sans-serif" font-size="14" lengthAdjust="spacing" textLength="125.6787" x="542.99" y="650.3066">total : Invoices::Int</text><line style="stroke:#181818;stroke-width:0.5;" x1="537.99" x2="730.0037" y1="657.2597" y2="657.2597"/></g><!--class PaymentDetails--><g class="entity" data-qualified-name="Invoices..PaymentDetails" data-source-line="51" id="ent0012"><rect fill="#F1F1F1" height="108.4414" rx="2.5" ry="2.5" style="stroke:#181818;stroke-width:0.5;" width="212.7236" x="1006.64" y="548.57"/><text fill="#000000" font-family="sans-serif" font-size="14" lengthAdjust="spacing" textLength="104.0635" x="1060.9701" y="567.1052">PaymentDetails</text><line style="stroke:#181818;stroke-width:0.5;" x1="1007.64" x2="1218.3636" y1="575.0583" y2="575.0583"/><text fill="#000000" font-family="sans-serif" font-size="14" lengthAdjust="spacing" textLength="136.8691" x="1012.64" y="592.5934">bic : Invoices::String</text><text fill="#000000" font-family="sans-serif" font-size="14" lengthAdjust="spacing" textLength="200.7236" x="1012.64" y="609.0817">cardNumber : Invoices::String</text><text fill="#000000" font-family="sans-serif" font-size="14" lengthAdjust="spacing" textLength="146.1182" x="1012.64" y="625.57">iban : Invoices::String</text><text fill="#000000" font-family="sans-serif" font-size="14" lengthAdjust="spacing" textLength="180.4414" x="1012.64" y="642.0583">validUntil : Invoices::String</text><line style="stroke:#181818;stroke-width:0.5;" x1="1007.64" x2="1218.3636" y1="649.0114" y2="649.0114"/></g><!--class Address--><g class="entity" data-qualified-name="Sales..Address" data-source-line="11" id="ent0004"><rect fill="#F1F1F1" height="124.9297" rx="2.5" ry="2.5" style="stroke:#181818;stroke-width:0.5;" width="184.833" x="21.58" y="540.33"/><text fill="#000000" font-family="sans-serif" font-size="14" lengthAdjust="spacing" textLength="55.084" x="86.4545" y="558.8652">Address</text><line style="stroke:#181818;stroke-width:0.5;" x1="22.58" x2="205.413" y1="566.8183" y2="566.8183"/><text fill="#000000" font-family="sans-serif" font-size="14" lengthAdjust="spacing" textLength="120.1416" x="27.58" y="584.3534">city : Sales::String</text><text fill="#000000" font-family="sans-serif" font-size="14" lengthAdjust="spacing" textLength="147.7998" x="27.58" y="600.8417">country : Sales::String</text><text fill="#000000" font-family="sans-serif" font-size="14" lengthAdjust="spacing" textLength="172.833" x="27.58" y="617.33">postalCode : Sales::String</text><text fill="#000000" font-family="sans-serif" font-size="14" lengthAdjust="spacing" textLength="129.5137" x="27.58" y="633.8183">state : Sales::String</text><text fill="#000000" font-family="sans-serif" font-size="14" lengthAdjust="spacing" textLength="135.3105" x="27.58" y="650.3066">street : Sales::String</text><line style="stroke:#181818;stroke-width:0.5;" x1="22.58" x2="205.413" y1="657.2597" y2="657.2597"/></g><!--class Purchase--><g class="entity" data-qualified-name="Sales..Purchase" data-source-line="58" id="ent0013"><rect fill="#F1F1F1" height="75.4648" rx="2.5" ry="2.5" style="stroke:#181818;stroke-width:0.5;" width="137.9521" x="241.02" y="565.06"/><text fill="#000000" font-family="sans-serif" font-size="14" lengthAdjust="spacing" textLength="60.6826" x="279.6548" y="583.5952">Purchase</text><line style="stroke:#181818;stroke-width:0.5;" x1="242.02" x2="377.9721" y1="591.5483" y2="591.5483"/><text fill="#000000" font-family="sans-serif" font-size="14" lengthAdjust="spacing" textLength="125.9521" x="247.02" y="609.0834">date : Sales::String</text><text fill="#000000" font-family="sans-serif" font-size="14" lengthAdjust="spacing" textLength="123.8809" x="247.02" y="625.5717">id : Sales::ID [1..1]</text><line style="stroke:#181818;stroke-width:0.5;" x1="242.02" x2="377.9721" y1="632.5248" y2="632.5248"/></g><!--class PurchaseItem--><g class="entity" data-qualified-name="Sales..PurchaseItem" data-source-line="63" id="ent0014"><rect fill="#F1F1F1" height="91.9531" rx="2.5" ry="2.5" style="stroke:#181818;stroke-width:0.5;" width="197.623" x="181.19" y="744.26"/><text fill="#000000" font-family="sans-serif" font-size="14" lengthAdjust="spacing" textLength="90.8223" x="234.5904" y="762.7952">PurchaseItem</text><line style="stroke:#181818;stroke-width:0.5;" x1="182.19" x2="377.813" y1="770.7483" y2="770.7483"/><text fill="#000000" font-family="sans-serif" font-size="14" lengthAdjust="spacing" textLength="176.9141" x="187.19" y="788.2834">productId : Sales::ID [1..1]</text><text fill="#000000" font-family="sans-serif" font-size="14" lengthAdjust="spacing" textLength="185.623" x="187.19" y="804.7717">purchaseId : Sales::ID [1..1]</text><text fill="#000000" font-family="sans-serif" font-size="14" lengthAdjust="spacing" textLength="130.1152" x="187.19" y="821.26">quantity : Sales::Int</text><line style="stroke:#181818;stroke-width:0.5;" x1="182.19" x2="377.813" y1="828.2131" y2="828.2131"/></g><!--class Store--><g class="entity" data-qualified-name="Sales..Store" data-source-line="69" id="ent0015"><rect fill="#F1F1F1" height="75.4648" rx="2.5" ry="2.5" style="stroke:#181818;stroke-width:0.5;" width="182.502" x="84.75" y="290.67"/><text fill="#000000" font-family="sans-serif" font-size="14" lengthAdjust="spacing" textLength="34.9043" x="158.5488" y="309.2052">Store</text><line style="stroke:#181818;stroke-width:0.5;" x1="85.75" x2="266.252" y1="317.1583" y2="317.1583"/><text fill="#000000" font-family="sans-serif" font-size="14" lengthAdjust="spacing" textLength="123.8809" x="90.75" y="334.6934">id : Sales::ID [1..1]</text><text fill="#000000" font-family="sans-serif" font-size="14" lengthAdjust="spacing" textLength="170.502" x="90.75" y="351.1817">manager : Sales::ID [1..1]</text><line style="stroke:#181818;stroke-width:0.5;" x1="85.75" x2="266.252" y1="358.1348" y2="358.1348"/></g><!--class BankingDetails--><g class="entity" data-qualified-name="HR..BankingDetails" data-source-line="19" id="ent0006"><rect fill="#F1F1F1" height="75.4648" rx="2.5" ry="2.5" style="stroke:#181818;stroke-width:0.5;" width="122.5371" x="718.73" y="41"/><text fill="#000000" font-family="sans-serif" font-size="14" lengthAdjust="spacing" textLength="100.6045" x="729.6963" y="59.5352">BankingDetails</text><line style="stroke:#181818;stroke-width:0.5;" x1="719.73" x2="840.2671" y1="67.4883" y2="67.4883"/><text fill="#000000" font-family="sans-serif" font-size="14" lengthAdjust="spacing" textLength="101.2881" x="724.73" y="85.0234">bic : HR::String</text><text fill="#000000" font-family="sans-serif" font-size="14" lengthAdjust="spacing" textLength="110.5371" x="724.73" y="101.5117">iban : HR::String</text><line style="stroke:#181818;stroke-width:0.5;" x1="719.73" x2="840.2671" y1="108.4648" y2="108.4648"/></g><!--class Department--><g class="entity" data-qualified-name="HR..Department" data-source-line="24" id="ent0008"><rect fill="#F1F1F1" height="75.4648" rx="2.5" ry="2.5" style="stroke:#181818;stroke-width:0.5;" width="130.5488" x="552.73" y="41"/><text fill="#000000" font-family="sans-serif" font-size="14" lengthAdjust="spacing" textLength="80.5889" x="577.71" y="59.5352">Department</text><line style="stroke:#181818;stroke-width:0.5;" x1="553.73" x2="682.2788" y1="67.4883" y2="67.4883"/><text fill="#000000" font-family="sans-serif" font-size="14" lengthAdjust="spacing" textLength="108.7666" x="558.73" y="85.0234">id : HR::ID [1..1]</text><text fill="#000000" font-family="sans-serif" font-size="14" lengthAdjust="spacing" textLength="118.5488" x="558.73" y="101.5117">name : HR::String</text><line style="stroke:#181818;stroke-width:0.5;" x1="553.73" x2="682.2788" y1="108.4648" y2="108.4648"/></g><!--class Partner--><g class="entity" data-qualified-name="Alignment..Partner" data-source-line="37" id="ent0010"><rect fill="#F1F1F1" height="223.8594" rx="2.5" ry="2.5" style="stroke:#181818;stroke-width:0.5;" width="166.1299" x="567.94" y="216.47"/><text fill="#000000" font-family="sans-serif" font-size="14" lengthAdjust="spacing" textLength="48.6514" x="626.6793" y="235.0052">Partner</text><line style="stroke:#181818;stroke-width:0.5;" x1="568.94" x2="733.0699" y1="242.9583" y2="242.9583"/><text fill="#000000" font-family="sans-serif" font-size="14" lengthAdjust="spacing" textLength="117.9541" x="573.94" y="260.4934">email : HR::String</text><text fill="#000000" font-family="sans-serif" font-size="14" lengthAdjust="spacing" textLength="133.0684" x="573.94" y="276.9817">email : Sales::String</text><text fill="#000000" font-family="sans-serif" font-size="14" lengthAdjust="spacing" textLength="145.8447" x="573.94" y="293.47">firstname : HR::String</text><text fill="#000000" font-family="sans-serif" font-size="14" lengthAdjust="spacing" textLength="131.2295" x="573.94" y="309.9583">hiredAt : HR::String</text><text fill="#000000" font-family="sans-serif" font-size="14" lengthAdjust="spacing" textLength="144.3477" x="573.94" y="326.4466">id : Invoices::ID [1..1]</text><text fill="#000000" font-family="sans-serif" font-size="14" lengthAdjust="spacing" textLength="123.8809" x="573.94" y="342.9348">id : Sales::ID [1..1]</text><text fill="#000000" font-family="sans-serif" font-size="14" lengthAdjust="spacing" textLength="108.7666" x="573.94" y="359.4231">id : HR::ID [1..1]</text><text fill="#000000" font-family="sans-serif" font-size="14" lengthAdjust="spacing" textLength="142.7002" x="573.94" y="375.9114">lastname : HR::String</text><text fill="#000000" font-family="sans-serif" font-size="14" lengthAdjust="spacing" textLength="154.1299" x="573.94" y="392.3997">name : Invoices::String</text><text fill="#000000" font-family="sans-serif" font-size="14" lengthAdjust="spacing" textLength="133.6631" x="573.94" y="408.888">name : Sales::String</text><text fill="#000000" font-family="sans-serif" font-size="14" lengthAdjust="spacing" textLength="123.8467" x="573.94" y="425.3763">phone : HR::String</text><line style="stroke:#181818;stroke-width:0.5;" x1="568.94" x2="733.0699" y1="432.3294" y2="432.3294"/></g><!--link Partner to Address--><g class="link" data-entity-1="ent0010" data-entity-2="ent0002" data-link-type="dependency" data-source-line="74" id="lnk16"><path codeLine="74" d="M734.35,433.54 C763.08,469.44 790.582,503.7946 815.732,535.2346" fill="none" id="Partner-to-Address" style="stroke:#181818;stroke-width:1;"/><polygon fill="#181818" points="819.48,539.92,816.9816,530.3933,816.3567,536.0155,810.7344,535.3906,819.48,539.92" style="stroke:#181818;stroke-width:1;"/><text fill="#000000" font-family="sans-serif" font-size="13" lengthAdjust="spacing" textLength="49.3594" x="774.05" y="485.8984">address</text><text fill="#000000" font-family="sans-serif" font-size="13" lengthAdjust="spacing" textLength="24.667" x="788.4053" y="529.3692">0..1</text></g><!--link Partner to Address--><g class="link" data-entity-1="ent0010" data-entity-2="ent0004" data-link-type="dependency" data-source-line="75" id="lnk17"><path codeLine="75" d="M567.52,380.08 C518.62,408.04 454.89,441.6 395,464.33 C389.55,466.4 298.74,488.29 293,489.33 C262.62,494.79 251.96,484.25 224,497.33 C202.41,507.43 186.6394,519.2549 169.7094,535.7349" fill="none" id="Partner-to-Address-1" style="stroke:#181818;stroke-width:1;"/><polygon fill="#181818" points="165.41,539.92,174.6492,536.5086,168.9928,536.4324,169.069,530.7761,165.41,539.92" style="stroke:#181818;stroke-width:1;"/><text fill="#000000" font-family="sans-serif" font-size="13" lengthAdjust="spacing" textLength="49.3594" x="364.88" y="485.8984">address</text><text fill="#000000" font-family="sans-serif" font-size="13" lengthAdjust="spacing" textLength="24.667" x="146.0057" y="529.3692">0..1</text></g><!--link Store to Address--><g class="link" data-entity-1="ent0015" data-entity-2="ent0004" data-link-type="dependency" data-source-line="76" id="lnk18"><path codeLine="76" d="M142.7,366.6 C120.73,393.76 93.88,432.64 82,472.33 C75.46,494.17 76.9666,512.6328 83.4166,534.1428" fill="none" id="Store-to-Address" style="stroke:#181818;stroke-width:1;"/><polygon fill="#181818" points="85.14,539.89,86.3864,530.1203,83.7039,535.1007,78.7235,532.4181,85.14,539.89" style="stroke:#181818;stroke-width:1;"/><text fill="#000000" font-family="sans-serif" font-size="13" lengthAdjust="spacing" textLength="49.3594" x="83" y="485.8984">address</text><text fill="#000000" font-family="sans-serif" font-size="13" lengthAdjust="spacing" textLength="24.667" x="56.7078" y="529.7748">0..1</text></g><!--link Partner to BankingDetails--><g class="link" data-entity-1="ent0010" data-entity-2="ent0006" data-link-type="dependency" data-source-line="77" id="lnk19"><path codeLine="77" d="M709.03,215.99 C727.61,180.32 744.1378,148.5812 757.9178,122.1312" fill="none" id="Partner-to-BankingDetails" style="stroke:#181818;stroke-width:1;"/><polygon fill="#181818" points="760.69,116.81,752.9842,122.9436,758.3798,121.2443,760.0791,126.6399,760.69,116.81" style="stroke:#181818;stroke-width:1;"/><text fill="#000000" font-family="sans-serif" font-size="13" lengthAdjust="spacing" textLength="82.2974" x="742.88" y="162.0384">bankAccount</text><text fill="#000000" font-family="sans-serif" font-size="13" lengthAdjust="spacing" textLength="24.667" x="731.5598" y="136.9529">0..1</text></g><!--link Invoice to Partner--><g class="link" data-entity-1="ent0009" data-entity-2="ent0010" data-link-type="dependency" data-source-line="78" id="lnk20"><path codeLine="78" d="M637.85,540.13 C639.69,510.7 641.5665,480.5584 643.6865,446.5684" fill="none" id="Invoice-to-Partner" style="stroke:#181818;stroke-width:1;"/><polygon fill="#181818" points="644.06,440.58,639.5075,449.3135,643.7487,445.5703,647.492,449.8115,644.06,440.58" style="stroke:#181818;stroke-width:1;"/><text fill="#000000" font-family="sans-serif" font-size="13" lengthAdjust="spacing" textLength="34.3472" x="642.99" y="485.8984">client</text><text fill="#000000" font-family="sans-serif" font-size="13" lengthAdjust="spacing" textLength="24.667" x="618.8677" y="460.8253">1..1</text></g><!--link Partner to Invoice--><g class="link" data-entity-1="ent0010" data-entity-2="ent0009" data-link-type="dependency" data-source-line="80" id="lnk22"><path codeLine="80" d="M687.92,440.82 C689.67,457.09 689.45,473.64 686,489.33 C682.26,506.34 678.1577,518.3855 670.9077,534.3755" fill="none" id="Partner-to-Invoice" style="stroke:#181818;stroke-width:1;"/><polygon fill="#181818" points="668.43,539.84,675.7895,533.295,670.4947,535.2862,668.5035,529.9914,668.43,539.84" style="stroke:#181818;stroke-width:1;"/><text fill="#000000" font-family="sans-serif" font-size="13" lengthAdjust="spacing" textLength="50.8257" x="689.12" y="485.8984">invoices</text><text fill="#000000" font-family="sans-serif" font-size="13" lengthAdjust="spacing" textLength="22.7119" x="649.0319" y="529.7193">0..*</text></g><!--link Purchase to Partner--><g class="link" data-entity-1="ent0013" data-entity-2="ent0010" data-link-type="dependency" data-source-line="79" id="lnk21"><path codeLine="79" d="M344.86,564.62 C370.83,537.75 407.75,501.25 443,472.33 C482.3,440.09 523.6843,411.028 562.6643,385.268" fill="none" id="Purchase-to-Partner" style="stroke:#181818;stroke-width:1;"/><polygon fill="#181818" points="567.67,381.96,557.9561,383.5849,563.4986,384.7167,562.3668,390.2592,567.67,381.96" style="stroke:#181818;stroke-width:1;"/><text fill="#000000" font-family="sans-serif" font-size="13" lengthAdjust="spacing" textLength="58.8999" x="444" y="485.8984">customer</text><text fill="#000000" font-family="sans-serif" font-size="13" lengthAdjust="spacing" textLength="24.667" x="535.2089" y="383.6444">1..1</text></g><!--link Partner to Purchase--><g class="link" data-entity-1="ent0010" data-entity-2="ent0013" data-link-type="dependency" data-source-line="84" id="lnk26"><path codeLine="84" d="M567.62,431.91 C548.79,452.14 528.09,472.33 507,489.33 C467.75,520.96 423.8398,546.3338 384.3998,566.5438" fill="none" id="Partner-to-Purchase" style="stroke:#181818;stroke-width:1;"/><polygon fill="#181818" points="379.06,569.28,388.8938,568.7355,383.5098,566.9998,385.2455,561.6158,379.06,569.28" style="stroke:#181818;stroke-width:1;"/><text fill="#000000" font-family="sans-serif" font-size="13" lengthAdjust="spacing" textLength="63.9717" x="525.75" y="485.8984">purchases</text><text fill="#000000" font-family="sans-serif" font-size="13" lengthAdjust="spacing" textLength="22.7119" x="386.9763" y="562.8265">0..*</text></g><!--link Purchase to PurchaseItem--><g class="link" data-entity-1="ent0013" data-entity-2="ent0014" data-link-type="dependency" data-source-line="81" id="lnk23"><path codeLine="81" d="M304,640.87 C299.2,670.57 293.3997,706.4372 288.2697,738.0972" fill="none" id="Purchase-to-PurchaseItem" style="stroke:#181818;stroke-width:1;"/><polygon fill="#181818" points="287.31,744.02,292.698,735.7757,288.1097,739.0844,284.801,734.4961,287.31,744.02" style="stroke:#181818;stroke-width:1;"/><text fill="#000000" font-family="sans-serif" font-size="13" lengthAdjust="spacing" textLength="34.6265" x="295.1" y="710.8284">items</text><text fill="#000000" font-family="sans-serif" font-size="13" lengthAdjust="spacing" textLength="22.7119" x="264.7992" y="733.3868">0..*</text></g><!--link Department to Partner--><g class="link" data-entity-1="ent0008" data-entity-2="ent0010" data-link-type="dependency" data-source-line="82" id="lnk24"><path codeLine="82" d="M649.25,116.86 C655.71,126.56 661.58,137.42 665,148.47 C671.63,169.9 673.644,187.4342 672.794,210.1842" fill="none" id="Department-to-Partner" style="stroke:#181818;stroke-width:1;"/><polygon fill="#181818" points="672.57,216.18,676.9032,207.3356,672.7567,211.1835,668.9088,207.0369,672.57,216.18" style="stroke:#181818;stroke-width:1;"/><text fill="#000000" font-family="sans-serif" font-size="13" lengthAdjust="spacing" textLength="55.231" x="669.6" y="162.0384">manager</text><text fill="#000000" font-family="sans-serif" font-size="13" lengthAdjust="spacing" textLength="24.667" x="649.2351" y="205.7151">0..1</text></g><!--link Department to Partner--><g class="link" data-entity-1="ent0008" data-entity-2="ent0010" data-link-type="dependency" data-source-line="87" id="lnk29"><path codeLine="87" d="M598.05,116.77 C592.21,131.69 588.08,149.19 591,165.47 C593.99,182.14 596.7516,193.6254 602.0916,210.3154" fill="none" id="Department-to-Partner-1" style="stroke:#181818;stroke-width:1;"/><polygon fill="#181818" points="603.92,216.03,604.9871,206.2391,602.3963,211.2678,597.3676,208.677,603.92,216.03" style="stroke:#181818;stroke-width:1;"/><text fill="#000000" font-family="sans-serif" font-size="13" lengthAdjust="spacing" textLength="64.6826" x="592" y="162.0384">workingAt</text><text fill="#000000" font-family="sans-serif" font-size="13" lengthAdjust="spacing" textLength="22.7119" x="578.0413" y="205.555">0..*</text></g><!--link Partner to Department--><g class="link" data-entity-1="ent0010" data-entity-2="ent0008" data-link-type="dependency" data-source-line="88" id="lnk30"><path codeLine="88" d="M567.46,237.43 C551.69,215.41 537.49,190.84 529,165.47 C522.09,144.82 529.9332,130.7683 547.6132,116.8683" fill="none" id="Partner-to-Department" style="stroke:#181818;stroke-width:1;"/><polygon fill="#181818" points="552.33,113.16,542.7826,115.578,548.3993,116.2503,547.727,121.867,552.33,113.16" style="stroke:#181818;stroke-width:1;"/><text fill="#000000" font-family="sans-serif" font-size="13" lengthAdjust="spacing" textLength="51.3779" x="530" y="162.0384">worksAt</text><text fill="#000000" font-family="sans-serif" font-size="13" lengthAdjust="spacing" textLength="24.667" x="519.8708" y="113.6905">0..1</text></g><!--link Partner to PaymentDetails--><g class="link" data-entity-1="ent0010" data-entity-2="ent0012" data-link-type="dependency" data-source-line="83" id="lnk25"><path codeLine="83" d="M734.24,364.04 C804.56,394.87 906.68,443.32 989,497.33 C1011.83,512.3 1030.6115,527.0171 1050.7915,544.3771" fill="none" id="Partner-to-PaymentDetails" style="stroke:#181818;stroke-width:1;"/><polygon fill="#181818" points="1055.34,548.29,1051.1258,539.3883,1051.5496,545.0292,1045.9086,545.453,1055.34,548.29" style="stroke:#181818;stroke-width:1;"/><text fill="#000000" font-family="sans-serif" font-size="13" lengthAdjust="spacing" textLength="97.627" x="972.91" y="485.8984">paymentDetails</text><text fill="#000000" font-family="sans-serif" font-size="13" lengthAdjust="spacing" textLength="24.667" x="1022.4573" y="537.9344">0..1</text></g><!--link Store to Purchase--><g class="link" data-entity-1="ent0015" data-entity-2="ent0013" data-link-type="dependency" data-source-line="85" id="lnk27"><path codeLine="85" d="M162.67,366.43 C152.41,402.21 144.3,455.77 173,489.33 C187.91,506.76 204.08,485.95 224,497.33 C251.64,513.11 270.8567,536.415 285.8867,559.605" fill="none" id="Store-to-Purchase" style="stroke:#181818;stroke-width:1;"/><polygon fill="#181818" points="289.15,564.64,287.6117,554.912,286.4306,560.4442,280.8984,559.2631,289.15,564.64" style="stroke:#181818;stroke-width:1;"/><text fill="#000000" font-family="sans-serif" font-size="13" lengthAdjust="spacing" textLength="63.9717" x="174" y="485.8984">purchases</text><text fill="#000000" font-family="sans-serif" font-size="13" lengthAdjust="spacing" textLength="22.7119" x="261.7376" y="554.3885">0..*</text></g><!--link Purchase to Store--><g class="link" data-entity-1="ent0013" data-entity-2="ent0015" data-link-type="dependency" data-source-line="86" id="lnk28"><path codeLine="86" d="M291.83,564.85 C266.23,512.82 222.4789,423.8736 196.8589,371.8036" fill="none" id="Purchase-to-Store" style="stroke:#181818;stroke-width:1;"/><polygon fill="#181818" points="194.21,366.42,194.5943,376.2614,196.4174,370.9063,201.7724,372.7295,194.21,366.42" style="stroke:#181818;stroke-width:1;"/><text fill="#000000" font-family="sans-serif" font-size="13" lengthAdjust="spacing" textLength="32.0366" x="252.02" y="485.8984">store</text><text fill="#000000" font-family="sans-serif" font-size="13" lengthAdjust="spacing" textLength="24.667" x="171.3345" y="386.8384">1..1</text></g><?plantuml-src ZLKzZzim3DtzAuIC1zoXMJKSu3P3inH1Wqv51qLI4-5aoPNeEmH5_tjfMqdyGIMUOl29rEFZ4nCrC2Sg7MiXzLxN8WZmWN5Ud8pIJ9eWhIwa5J6ohNltHkh8UQbKq1ZvMp26P-3C-03TGp3ks46-SH1oQEqZ2Fl5uptq0OGXZmMDt0dmNv7uxeNDaKqGnNG6ZMZEq0j70aW4nyYLtTVld7yMxWs36mt2sCJmO2GcjUYjbZa8DmwEocpQkK6b7VGbZ4g7jnlsS_toilxLHjinPuhSD4nVIQoWiJbLGcO6gj5PhECmg3jaKelpdQhWKUvnieCRrzAQesjxvNo7NJiTUhAwGWrdobsYi_7yDY72N194JYOaTfCXtEcemz8TSs0s2co4lZi5ALaIDBVdoRl7Szs9SwiPuJJotOgWlZNL0RNDJBSt90Mz2slK3mV6BdcSkoR8auZ9S2hpbcXvSxMseAk-NXsyQYHiSzEfBncv0tyQWPqCLyR8YrUYFkZ1qwCgLSA9OwSdrGTXwkVdLxRwX0TMnEBbJFHV3p8dA_2MDcA-9E7-FSGoummzybRARhCMymtJPQ-xRA8sPz8QZ1HJdpnCQoBuIeTxX9zMnCRZpAGOVMUVHraDC_4d5fDLF927P9eSiNZsaoVCspKw23neUDeJlve_OuPbETHSHkKu_X7YRqwSfumu7pwqPYfXWV46PVl4MC9_?></g></svg>